<svg width="660" height="225" xmlns="http://www.w3.org/2000/svg">
 <g>
  <title>Layer 1</title>
  <text fill="#000000" stroke="#c4c4c4" stroke-width="5" x="5.5" y="144.16667" id="svg_1" font-size="120" font-family="'Spartan'" text-anchor="start" xml:space="preserve" font-weight="bold" transform="matrix(0.810183, 0, 0, 1.85524, 0, -53.6436)">Harmontide</text>
  <path fill="#424242" stroke="#353535" d="m2.60665,29.51196l9.16725,0l2.83275,-9.16721l2.83275,9.16721l9.16725,0l-7.41645,5.66558l2.8329,9.16721l-7.41645,-5.66574l-7.41645,5.66574l2.8329,-9.16721l-7.41645,-5.66558z" id="svg_2"/>
  <path fill="#424242" stroke="#353535" d="m26.60665,17.80376l11.45906,0l3.54094,-11.45901l3.54094,11.45901l11.45906,0l-9.27056,7.08198l3.54112,11.45901l-9.27056,-7.08217l-9.27056,7.08217l3.54112,-11.45901l-9.27056,-7.08198z" id="svg_3"/>
  <path fill="#424242" stroke="#353535" d="m63.60665,16.09556l13.75087,0l4.24913,-13.75081l4.24913,13.75081l13.75087,0l-11.12467,8.49837l4.24935,13.75081l-11.12468,-8.4986l-11.12467,8.4986l4.24935,-13.75081l-11.12467,-8.49837l-0.00001,0z" id="svg_4"/>
  <path fill="#424242" stroke="#353535" d="m103.60665,38.76933l16.42466,0l5.07534,-16.42458l5.07535,16.42458l16.42465,0l-13.2878,10.15083l5.07561,16.42458l-13.28781,-10.15111l-13.2878,10.15111l5.07561,-16.42458l-13.28781,-10.15083z" id="svg_5"/>
  <path fill="#424242" stroke="#353535" d="m147.60665,57.91524l17.57056,0l5.42944,-17.57048l5.42944,17.57048l17.57056,0l-14.21486,10.85903l5.42972,17.57048l-14.21486,-10.85933l-14.21486,10.85933l5.42972,-17.57048l-14.21486,-10.85903z" id="svg_6"/>
 </g>

</svg>