<svg xmlns="http://www.w3.org/2000/svg" version="1.1" xmlns:xlink="http://www.w3.org/1999/xlink" preserveAspectRatio="none" x="0px" y="0px" width="222px" height="75px" viewBox="0 0 222 75">
<defs>
<linearGradient id="Gradient_1" gradientUnits="userSpaceOnUse" x1="117.4625" y1="52.7375" x2="117.8375" y2="31.5625" spreadMethod="pad">
<stop offset="0%" stop-color="#663260"/>

<stop offset="32.94117647058823%" stop-color="#290E42"/>

<stop offset="100%" stop-color="#030205"/>
</linearGradient>
</defs>

<g id="logo">
<g id="Layer_1" transform="matrix( 1, 0, 0, 1, -0.75,8) ">
<g>
<g>
<g>
<path fill="#000000" stroke="none" d=" M 55.75 37.8 Q 54.05 30.45 48.25 27.45 42.4 24.45 34.65 27.15 26.9 29.9 27.7 50 L 34.5 50 Q 33.35 33.75 41.9 34.05 51.45 35 51 50.35 L 57.05 50.35 Q 57.45 45.1 55.75 37.8 M 84.6 46 L 82.95 42.05 Q 78.95 46.6 71.15 46.55 63.4 46.55 63.35 40.2 L 82.95 40.2 Q 84.75 39.5 84.45 34.9 84.05 30.3 78.45 28.5 73.35 27.35 68.25 28.15 63.15 28.85 61.15 29.95 59.1 31 58.55 33 57.55 35.95 57.7 40.35 57.95 48 64.1 49.95 70.25 51.9 76.05 50.8 81.85 49.6 84.6 46 M 78 35.15 L 66.65 35.15 Q 66.45 31.8 71.95 31.55 77.9 31.4 78 35.15 M 100 26.8 Q 97.2 26.85 94.45 27.6 91.55 28.65 89.15 30.65 85.45 33.7 85.45 38.85 L 85.45 38.9 Q 85.45 44 89.45 47.65 93.45 51.25 99.1 51.25 L 101.15 51.25 Q 106.8 51.25 110.85 47.65 114.85 44 114.85 38.9 L 114.85 38.85 Q 114.85 33.7 111 30.3 108.35 27.95 104.8 27.15 102.35 26.65 100 26.8 M 95.75 35.5 Q 96.9 34.4 98.5 34.4 98.55 34.4 98.6 34.4 L 102.9 34.4 Q 102.95 34.4 103 34.4 104.6 34.4 105.7 35.5 106.85 36.65 106.85 38.25 L 106.85 40.55 Q 106.85 42.1 105.7 43.25 104.6 44.4 103 44.4 102.4 44.5 101.85 44.55 L 99.7 44.55 Q 99.1 44.5 98.5 44.4 96.9 44.4 95.75 43.25 94.6 42.1 94.6 40.55 L 94.6 38.25 Q 94.6 36.65 95.75 35.5 M 144.1 39.1 Q 145.35 28.7 131.8 28.65 L 116.25 28.65 116.25 59.9 123.85 59.9 123.35 51.1 Q 143.55 51.65 144.1 39.1 M 124.05 33.15 Q 136 32.8 136.3 38.35 135.5 44.8 123.3 44.75 L 124.05 33.15 M 169.1 40.25 Q 170.7 39.45 169.9 35.3 169.05 31.15 163.65 30.1 158.8 29.65 154.3 30.95 149.8 32.2 148.25 33.45 146.65 34.65 145.8 36.9 145 39.1 145.65 43.15 146.7 50.05 152.6 51.2 158.55 52.3 163.8 50.7 169.15 48.95 171.3 45.3 L 169.3 41.95 Q 166.1 46.55 158.85 47.35 151.6 48.15 150.85 42.35 L 169.1 40.25 M 163.9 36.2 Q 163.9 36.4 163.95 36.6 L 153.45 37.85 Q 153.35 37.45 153.4 37.05 153.55 34.7 157.95 34 163.15 33.2 163.9 36.2 M 171.65 24.15 L 163.75 23.6 163.75 29 172.05 29 Q 170.8 43.15 173.85 47.55 176.85 51.95 182.1 51.7 190.25 51.55 190.45 43.7 190.45 37.8 188.2 34.05 L 183.3 34.65 Q 186.95 43 182.05 43.75 178.35 44.05 177.8 39.8 177 33.75 177.2 28.4 L 183.9 28.4 183.9 23.3 177.15 23.4 178.1 17.1 170.95 17.7 171.65 24.15 M 205.7 49 Q 209.1951171875 45.0814453125 206.25 42.25 203.3546875 39.41953125 200.55 38.15 197.7984375 36.9275390625 197.75 35.25 197.7474609375 33.6265625 200.15 33.6 202.555859375 33.6150390625 203 35.65 L 207.65 33.45 Q 207.7 30.9 204.95 29.55 203.75 28.9 201.95 28.6 196.2 27.35 192.75 31.2 189.3 35 192.05 38.3 194.8 41.55 198 43.2 201.25 44.8 200 46.1 198.7 47.4 194.7 45.5 L 191.35 47.55 Q 192.4017578125 50.1998046875 197.3 51.55 202.1958984375 52.9072265625 205.7 49 Z"/>

<path fill="url(#Gradient_1)" stroke="none" d=" M 98.5 44.4 Q 99.1 44.5 99.7 44.55 99.1 44.45 98.6 44.4 98.55 44.4 98.5 44.4 M 95.85 35.5 Q 96.95 34.45 98.5 34.4 96.9 34.4 95.75 35.5 94.6 36.65 94.6 38.25 L 94.6 40.55 Q 94.6 42.1 95.75 43.25 96.9 44.4 98.5 44.4 96.95 44.35 95.85 43.25 94.7 42.1 94.7 40.55 L 94.7 38.25 Q 94.7 36.65 95.85 35.5 M 163.95 36.6 Q 163.9 36.4 163.9 36.2 L 153.45 37.5 Q 153.4 37.25 153.4 37.05 153.35 37.45 153.45 37.85 L 163.95 36.6 Z"/>
</g>
</g>
</g>

<g id="Layer_1" transform="matrix( 0.96759033203125, 0, 0, 0.96759033203125, 72.25,0) ">
<g>
<g>
<g>
<path fill="#000000" stroke="none" d=" M 0.25 7.4 L 0.1 9.5 4.7 14.3 0 21.15 0 22 Q 0 22.95 0.95 22.55 L 10.2 18.4 20.45 27.2 Q 21.15 27.75 21.5 26.4 L 21.7 25.35 21.5 25.35 10.85 16.35 0.5 20.8 5.9 12.7 0.45 7.6 1.55 7.6 0.25 7.4 M 27.45 10.35 Q 28.35 9.85 28.45 8.75 L 28.45 7.35 27.1 7.55 27.95 7.55 18.75 13.15 19.15 14.9 27.45 10.35 Z"/>

<path fill="#F8F402" stroke="none" d=" M 27.95 7.55 L 27.1 7.55 17.4 7.55 15.35 0 9.55 7.6 1.55 7.6 0.45 7.6 5.9 12.7 0.5 20.8 10.85 16.35 21.5 25.35 19.15 14.9 18.75 13.15 27.95 7.55 Z"/>
</g>
</g>

<g>
<path stroke="#000000" stroke-width="0.4" stroke-linejoin="round" stroke-linecap="round" fill="none" d=" M 19.15 14.925 L 21.5 25.35 M 1.575 7.6 L 9.55 7.6 15.35 0 17.4 7.55 27.1 7.55 27.95 7.55 18.75 13.15 19.15 14.925 M 21.5 25.35 L 10.85 16.35 0.5 20.8 5.9 12.7 0.45 7.6 1.575 7.6"/>
</g>
</g>
</g>

<g id="Layer_1" transform="matrix( 0.731903076171875, -0.259124755859375, 0.259124755859375, 0.731903076171875, 28.7,8.25) ">
<g>
<g>
<g>
<path fill="#000000" stroke="none" d=" M 0.25 7.4 L 0.1 9.5 4.7 14.3 0 21.15 0 22 Q 0 22.95 0.95 22.55 L 10.2 18.4 20.45 27.2 Q 21.15 27.75 21.5 26.4 L 21.7 25.35 21.5 25.35 10.85 16.35 0.5 20.8 5.9 12.7 0.45 7.6 1.55 7.6 0.25 7.4 M 27.45 10.35 Q 28.35 9.85 28.45 8.75 L 28.45 7.35 27.1 7.55 27.95 7.55 18.75 13.15 19.15 14.9 27.45 10.35 Z"/>

<path fill="#F8F402" stroke="none" d=" M 27.95 7.55 L 27.1 7.55 17.4 7.55 15.35 0 9.55 7.6 1.55 7.6 0.45 7.6 5.9 12.7 0.5 20.8 10.85 16.35 21.5 25.35 19.15 14.9 18.75 13.15 27.95 7.55 Z"/>
</g>
</g>

<g>
<path stroke="#000000" stroke-width="0.4" stroke-linejoin="round" stroke-linecap="round" fill="none" d=" M 19.15 14.925 L 21.5 25.35 M 1.575 7.6 L 9.55 7.6 15.35 0 17.4 7.55 27.1 7.55 27.95 7.55 18.75 13.15 19.15 14.925 M 21.5 25.35 L 10.85 16.35 0.5 20.8 5.9 12.7 0.45 7.6 1.575 7.6"/>
</g>
</g>
</g>

<g id="Layer_1" transform="matrix( 0.4931488037109375, -0.4051971435546875, 0.40814208984375, 0.511016845703125, 0,31.2) ">
<g>
<g>
<g>
<path fill="#000000" stroke="none" d=" M 0.25 7.4 L 0.1 9.5 4.7 14.3 0 21.15 0 22 Q 0 22.95 0.95 22.55 L 10.2 18.4 20.45 27.2 Q 21.15 27.75 21.5 26.4 L 21.7 25.35 21.5 25.35 10.85 16.35 0.5 20.8 5.9 12.7 0.45 7.6 1.55 7.6 0.25 7.4 M 27.45 10.35 Q 28.35 9.85 28.45 8.75 L 28.45 7.35 27.1 7.55 27.95 7.55 18.75 13.15 19.15 14.9 27.45 10.35 Z"/>

<path fill="#F8F402" stroke="none" d=" M 27.95 7.55 L 27.1 7.55 17.4 7.55 15.35 0 9.55 7.6 1.55 7.6 0.45 7.6 5.9 12.7 0.5 20.8 10.85 16.35 21.5 25.35 19.15 14.9 18.75 13.15 27.95 7.55 Z"/>
</g>
</g>

<g>
<path stroke="#000000" stroke-width="0.4" stroke-linejoin="round" stroke-linecap="round" fill="none" d=" M 19.15 14.925 L 21.5 25.35 M 1.575 7.6 L 9.55 7.6 15.35 0 17.4 7.55 27.1 7.55 27.95 7.55 18.75 13.15 19.15 14.925 M 21.5 25.35 L 10.85 16.35 0.5 20.8 5.9 12.7 0.45 7.6 1.575 7.6"/>
</g>
</g>
</g>

<g>
<g>
<path stroke="#000000" stroke-width="1" stroke-linejoin="round" stroke-linecap="round" fill="none" d=" M 216.1 27.15 L 214 24.6 Q 213.3 24.7 212.25 24.7 L 212.25 27.2 M 218.75 24.5 Q 218.75 26.45 217.35 27.85 216 29.2 214.05 29.2 212.1 29.2 210.75 27.85 209.35 26.45 209.35 24.5 209.35 22.65 210.75 21.25 212.1 19.85 214.05 19.85 216 19.85 217.35 21.25 218.75 22.65 218.75 24.5 Z M 214 24.6 Q 216.2 24.5 216 23.25 215.8 21.9 212.25 21.95 L 212.25 24.7"/>
</g>
</g>
</g>
</g>
</svg>